<svg width="48" height="48" viewBox="0 0 192 192" xmlns="http://www.w3.org/2000/svg"><path d="M135.118 32.451c13.473.046 24.384 10.957 24.43 24.43v19.57H184v-19.57C184.012 29.897 162.145 8.012 135.16 8h-19.612v24.451h19.57z" fill="#FBBC05"/><path d="M32.451 56.882c.046-13.473 10.957-24.384 24.43-24.43h19.57V8h-19.57C29.897 7.988 8.012 29.855 8 56.84v19.612h24.451v-19.57z" fill="#EA4335"/><path d="M56.882 159.549c-13.473-.046-24.384-10.957-24.43-24.43v-19.57H8v19.57C7.988 162.103 29.855 183.988 56.84 184h19.612v-24.451h-19.57z" fill="#4285F4"/><path d="M154.667 174.215c10.796 0 19.549-8.752 19.549-19.549 0-10.796-8.752-19.549-19.549-19.549-10.796 0-19.549 8.752-19.549 19.549 0 10.797 8.752 19.549 19.549 19.549z" fill="#34A853"/><path d="M96 130.215c18.897 0 34.215-15.319 34.215-34.215S114.897 61.785 96 61.785 61.785 77.103 61.785 96c0 18.897 15.318 34.215 34.215 34.215z" fill="#4285F4"/></svg>